<svg id="Layer_1" data-name="Layer 1" xmlns="http://www.w3.org/2000/svg" viewBox="0 0 21.77 37.67"><defs><style>.cls-1{fill:#0073c9;}</style></defs><title>Attach button</title><path class="cls-1" d="M8.47,35.87a7,7,0,0,1-7-7v-18A9,9,0,0,1,4.1,4.45,10.18,10.18,0,0,1,11,1.8a9.59,9.59,0,0,1,6.67,2.65,8.92,8.92,0,0,1,2.64,6.37v6.3a.73.73,0,0,1-.72.73.73.73,0,0,1-.73-.73v-6.3a7.5,7.5,0,0,0-2.21-5.34A8.21,8.21,0,0,0,11,3.25,8.9,8.9,0,0,0,5.13,5.48a7.51,7.51,0,0,0-2.22,5.34v18a5.56,5.56,0,0,0,11.12,0v-16a3.35,3.35,0,0,0-.89-2.3A2.92,2.92,0,0,0,11,9.72a3,3,0,0,0-2.37,1,3.28,3.28,0,0,0-.76,2.13v13a.72.72,0,0,1-.72.72.73.73,0,0,1-.73-.72v-13A4.71,4.71,0,0,1,7.52,9.75,4.41,4.41,0,0,1,11,8.27a4.33,4.33,0,0,1,3.18,1.25,4.85,4.85,0,0,1,1.31,3.32v16a7,7,0,0,1-7,7Z"/></svg>